<?xml version="1.0" encoding="UTF-8"?>
<svg xmlns="http://www.w3.org/2000/svg" viewBox="0 0 258 64.5">
<path d="M108.8 1.4c-.1 0-.2.1-.2.2v20.7c0 .3-.3.6-.7.6-.2 0-.3-.1-.4-.2-3.3-3-7.6-4.7-12.1-4.6-12.3 0-20.6 9.3-20.6 23.1 0 14 8.1 23.1 20.6 23.1 4.5 0 9.6-2.4 11.8-4.6.2-.2.4-.3.7-.3.3 0 .6.2.6.5l.9 3.2c.1.2.1.3.4.3h7.6c.1 0 .2-.1.2-.2V1.6c0-.1-.1-.2-.2-.2h-8.6zM96.7 56.2c-7.9 0-12.7-5.7-12.7-15s4.9-14.9 12.7-14.9c7.5 0 11.9 5.4 11.9 14.9 0 9.3-4.5 15-11.9 15zm31.9-38.1h8.8c.1 0 .2.1.2.2v44.9c0 .1-.1.2-.2.2h-8.8c-.1 0-.2-.1-.2-.2V18.3c-.1-.1 0-.2.2-.2zm-.1-15.2h9.1v9.2h-9.1zm36.6 15.2c-13 0-21.5 9.1-21.5 23.1 0 13.8 8.6 23.1 21.5 23.1 10.2 0 17.9-5.2 19.9-13.6-.1-.1-.1-.1-.2-.1h-9.2c-.2 0-.4.1-.4.3-1.8 3.5-5.2 5.3-10.1 5.3-6.8 0-11.9-4.7-11.9-11 0-.4.3-.6.6-.7H186c.1 0 .1 0 .2-.3.2-1 .3-2 .3-3 .1-14-8.4-23.1-21.4-23.1zm11.6 19.2h-23.4c-.5-3.3 2.9-10.9 11.8-10.9 7.9 0 12 5.7 11.6 10.9zm63.5-19.2c-4.7 0-9.2 1.9-12.5 5.3-.2.2-.4.3-.6.3-.2 0-.4-.1-.6-.3-3.4-3.8-6.8-5.3-12-5.3-4 .1-7.8 1.8-10.5 4.7-.2.2-.4.3-.7.3-.3 0-.6-.2-.6-.5l-.9-3.3c-.1-.3-.2-.4-.4-.4h-7.5c-.1 0-.2.1-.2.2v44c0 .1.1.2.2.2h8.7c.1 0 .2-.1.2-.1V38.7c0-8 3.3-12.4 9.2-12.4 6.1 0 9.2 4.2 9.2 12.4v24.5c0 .2.1.2.2.2h8.7c.1 0 .2-.1.2-.2V38.7c0-5.3.9-12.4 9.1-12.4 6.1 0 9.3 4.2 9.3 12.4v24.5c0 .1.1.2.2.2h8.7c.1 0 .2 0 .2-.2V38.5c-.1-13.4-6.1-20.4-17.6-20.4zM61.3 57c1.7-2 3.2-4.1 4.5-6.4l-7.6-3.8c-1.1 1.8-2.4 3.5-4 5-1.8 1.8-4.2 3-6.7 3.4-4.4.6-7.6-.8-12.1-3.7-4.7-3-10.1-6.5-17.8-5.5-4.6.6-8.9 3-12.7 7.2-1.7 2-3.2 4.1-4.5 6.4L8 63.4c1.1-1.8 2.4-3.5 4-5 1.8-1.8 4.2-3 6.7-3.4.6-.1 1.3-.1 1.9-.1 3.5 0 6.3 1.4 10.2 3.8 4.4 2.9 10 6.4 17.8 5.4 4.8-.6 9.1-3 12.7-7.1zm0-22.7c1.7-2 3.2-4.1 4.5-6.4l-7.6-3.8c-1.1 1.8-2.4 3.5-4 5-1.8 1.8-4.2 3-6.7 3.4-4.4.6-7.6-.8-12.1-3.7-4.8-3-10.2-6.5-17.8-5.5-4.6.6-8.9 3-12.7 7.2-1.7 2-3.2 4.1-4.5 6.4L8 40.7c1.1-1.8 2.4-3.5 4-5 1.8-1.8 4.2-3 6.7-3.4.6-.1 1.3-.1 1.9-.1 3.5 0 6.3 1.4 10.2 3.8 4.4 2.9 10 6.4 17.8 5.4 4.8-.7 9.1-3 12.7-7.1zm0-22.8c1.7-2 3.2-4.1 4.5-6.4l-7.6-3.8c-1.1 1.8-2.4 3.5-4 5-1.8 1.8-4.2 3-6.7 3.4-4.4.6-7.6-.8-12.1-3.7C30.7 3 25.3-.4 17.6.5c-4.6.6-8.9 3-12.7 7.2-1.7 2-3.2 4.1-4.5 6.4L8 17.9c1.1-1.8 2.4-3.5 4-5 1.8-1.8 4.2-3 6.7-3.4.6-.1 1.3-.1 1.9-.1 3.5 0 6.3 1.4 10.2 3.8 4.4 2.9 10 6.4 17.8 5.4 4.8-.6 9.1-3 12.7-7.1z" fill="#42318c"/>
</svg>